<?xml version="1.0" encoding="utf-8"?>
<!-- Generator: Adobe Illustrator 25.4.1, SVG Export Plug-In . SVG Version: 6.00 Build 0)  -->
<svg version="1.1" id="Capa_1" xmlns="http://www.w3.org/2000/svg" xmlns:xlink="http://www.w3.org/1999/xlink" x="0px" y="0px"
	 viewBox="0 0 75 75" style="enable-background:new 0 0 75 75;" xml:space="preserve">
<style type="text/css">
	.st0{fill:#0077B3;}
</style>
<g>
	<g>
		<g>
			<g>
				<path class="st0" d="M17.2,73.3h-16V37.6c0-9.9,3.6-18.4,10.6-25.4c6.4-6.3,14.1-9.8,22.8-10.5l0.5,0V17L34.7,17
					c-4.5,0.6-8.5,2.7-11.6,5.9c-3.9,4.1-5.8,9-5.8,14.6L17.2,73.3z"/>
			</g>
		</g>
		<g>
			<g>
				<path class="st0" d="M37.5,73.3h-13V58.1h13c5.6,0,10.4-2,14.3-6c3.9-4.1,5.9-8.9,5.9-14.5c0-5.6-2-10.5-5.8-14.6
					c-2.8-3-5.8-4.7-9.2-5.5l-0.4-0.1V1.9l0.6,0.1c7.7,1,14.4,4.4,20.4,10.2c7.2,7.1,10.7,15.4,10.7,25.4c0,10-3.5,18.4-10.7,25.4
					C56,69.8,47.4,73.3,37.5,73.3z"/>
			</g>
		</g>
	</g>
</g>
</svg>
